<svg id="Layer_1" data-name="Layer 1" xmlns="http://www.w3.org/2000/svg" viewBox="0 0 17 17"><defs><style>.cls-1{fill:#fff;}</style></defs><title>language</title><path class="cls-1" d="M14.15558,2.84442a7.9982,7.9982,0,1,0,0,11.31117,7.99382,7.99382,0,0,0,0-11.31117Zm-.33429,10.171a8.02086,8.02086,0,0,0-1.19483-.88475A12.93837,12.93837,0,0,0,13.109,9.00958h2.35142a6.916,6.916,0,0,1-1.63917,4.00587ZM1.53954,9.00958H3.891a12.93828,12.93828,0,0,0,.48258,3.12112,8.02094,8.02094,0,0,0-1.19483.88475A6.91491,6.91491,0,0,1,1.53954,9.00958Zm1.63917-5.025a8.02094,8.02094,0,0,0,1.19483.88475,12.93561,12.93561,0,0,0-.48258,3.121H1.53954A6.91488,6.91488,0,0,1,3.17871,3.98454Zm4.81171.99008a6.92287,6.92287,0,0,1-2.37583-.60192c.43213-1.11279,1.22867-2.44758,2.37583-2.77829Zm0,1.02129v1.9945H4.91079a12.00836,12.00836,0,0,1,.38658-2.64275,7.94354,7.94354,0,0,0,2.693.64825Zm0,3.01367v1.9945a7.94349,7.94349,0,0,0-2.693.64825,12.00837,12.00837,0,0,1-.38658-2.64275Zm0,3.01579v3.38021c-1.147-.33071-1.94371-1.66533-2.37583-2.77829a6.92287,6.92287,0,0,1,2.37583-.60192Zm1.01917,0a6.92287,6.92287,0,0,1,2.37583.60192c-.43213,1.113-1.22867,2.44758-2.37583,2.77829Zm0-1.02129V9.00958h3.07963a12.00841,12.00841,0,0,1-.38658,2.64275,7.94349,7.94349,0,0,0-2.693-.64825Zm0-3.01367V5.99592a7.94354,7.94354,0,0,0,2.693-.64825,12.00839,12.00839,0,0,1,.38658,2.64275Zm0-3.01579V1.59442c1.14717.33071,1.94371,1.6655,2.37583,2.77829a6.92287,6.92287,0,0,1-2.37583.60192ZM11.299,2.10333a6.94213,6.94213,0,0,1,1.80679,1.15383,6.99858,6.99858,0,0,1-.82.62221,7.66933,7.66933,0,0,0-.98679-1.776Zm-6.585,1.776a7.011,7.011,0,0,1-.81983-.62221A6.944,6.944,0,0,1,5.70083,2.10333a7.68236,7.68236,0,0,0-.98679,1.776Zm.00017,9.24125a7.66941,7.66941,0,0,0,.98679,1.776,6.94219,6.94219,0,0,1-1.80679-1.15383,6.99885,6.99885,0,0,1,.82-.62221Zm7.57158,0a6.99858,6.99858,0,0,1,.82.62221A6.94651,6.94651,0,0,1,11.299,14.89667a7.66936,7.66936,0,0,0,.98679-1.776ZM13.109,7.99042a12.93708,12.93708,0,0,0-.48258-3.12112,8.02086,8.02086,0,0,0,1.19483-.88475,6.91491,6.91491,0,0,1,1.63917,4.00588Zm0,0"/></svg>