<svg id="Layer_1" data-name="Layer 1" xmlns="http://www.w3.org/2000/svg" viewBox="0 0 44.99998 51.00001"><defs><style>.cls-1{fill:#fff;}.cls-2{fill:none;}</style></defs><title>rapport-program</title><path class="cls-1" d="M32,25A13,13,0,1,0,45,38,13.015,13.015,0,0,0,32,25Zm5.18412,18.41986a1.498,1.498,0,0,1-2.104.26425l-4.5-3.5A1.50015,1.50015,0,0,1,30,39V32.5a1.5,1.5,0,0,1,3,0v5.76612l3.91987,3.04975a1.49771,1.49771,0,0,1,.26424,2.104Zm0,0"/><path class="cls-2" d="M23.75,24.11456a1.34984,1.34984,0,0,0-1.3479-1.348H7.74591a1.3479,1.3479,0,1,0,0,2.6958H22.4021A1.34868,1.34868,0,0,0,23.75,24.11456Z"/><path class="cls-2" d="M21.902,12.801H32.07672a.3.3,0,0,0,.21216-.51215L22.11414,2.11414a.3.3,0,0,0-.51215.21216V12.501A.3.3,0,0,0,21.902,12.801Z"/><path class="cls-2" d="M7.74591,18.69586H22.4021a1.34793,1.34793,0,0,0,0-2.69586H7.74591a1.34793,1.34793,0,0,0,0,2.69586Z"/><path class="cls-1" d="M32,23.801a14.1754,14.1754,0,0,1,2.398.21863V13.93317a5.46857,5.46857,0,0,0-1.60175-3.86688l-8.4646-8.4646A5.46862,5.46862,0,0,0,20.46484,0H3.25A3.25,3.25,0,0,0,0,3.25v37.5A3.25,3.25,0,0,0,3.25,44H19.14941A14.16675,14.16675,0,0,1,32,23.801ZM21.602,2.32629a.3.3,0,0,1,.51215-.21216L32.28888,12.28888a.3.3,0,0,1-.21216.51215H21.902a.3.3,0,0,1-.3-.3ZM7.74591,16H22.4021a1.34793,1.34793,0,0,1,0,2.69586H7.74591a1.34793,1.34793,0,0,1,0-2.69586ZM6.398,24.11456a1.35091,1.35091,0,0,1,1.3479-1.348H22.4021a1.3479,1.3479,0,1,1,0,2.6958H7.74591A1.34974,1.34974,0,0,1,6.398,24.11456Z"/></svg>