<svg id="Layer_1" data-name="Layer 1" xmlns="http://www.w3.org/2000/svg" viewBox="0 0 17 17"><defs><style>.cls-1{fill:#fff;}</style></defs><title>web</title><path class="cls-1" d="M2.875,8a1.399,1.399,0,0,0,.97337-.39538L5.236,8.29834a1.37492,1.37492,0,0,0-.01722.17041,1.40625,1.40625,0,0,0,2.8125,0,1.3889,1.3889,0,0,0-.141-.60241L9.77259,5.984a1.3889,1.3889,0,0,0,.60241.141,1.40789,1.40789,0,0,0,1.40625-1.40625,1.38519,1.38519,0,0,0-.07019-.4165l1.6355-1.22631a1.4053,1.4053,0,1,0-.62781-1.16969,1.38518,1.38518,0,0,0,.07019.4165l-1.6355,1.22631A1.40015,1.40015,0,0,0,9.10975,5.32116L7.22741,7.2035a1.3818,1.3818,0,0,0-1.57578.25438L4.264,6.76416a1.37487,1.37487,0,0,0,.01722-.17041A1.40625,1.40625,0,1,0,2.875,8Zm0,0"/><path class="cls-1" d="M16.03125,15.5625h-.5V5.65625a.46856.46856,0,0,0-.46875-.46875h-1.875a.46856.46856,0,0,0-.46875.46875V15.5625h-.9375V8.46875A.46856.46856,0,0,0,11.3125,8H9.4375a.46856.46856,0,0,0-.46875.46875V15.5625h-.9375V12.21875A.46856.46856,0,0,0,7.5625,11.75H5.6875a.46856.46856,0,0,0-.46875.46875V15.5625h-.9375V10.34375A.46856.46856,0,0,0,3.8125,9.875H1.9375a.46856.46856,0,0,0-.46875.46875V15.5625h-.5a.46875.46875,0,0,0,0,.9375h15.0625a.46875.46875,0,0,0,0-.9375Zm0,0"/></svg>