<svg id="Layer_1" data-name="Layer 1" xmlns="http://www.w3.org/2000/svg" viewBox="0 0 512 512"><defs><style>.cls-1{fill:#fff;}</style></defs><title>icon-supervision</title><path class="cls-1" d="M477.5756,229.43l.04291-.04291L345.66365,96.22693A48.09629,48.09629,0,0,0,311.37349,81.8854h-.11484A48.10718,48.10718,0,0,0,277.01415,96.072l-16.1197,16.12247a6.92037,6.92037,0,0,1-9.78473,0L234.98725,96.07057A48.10846,48.10846,0,0,0,200.74413,81.8854h-.11484a48.09394,48.09394,0,0,0-34.29016,14.34153L34.38427,229.38706l.0429.04291A117.57871,117.57871,0,1,0,222.76844,365.1169a62.05692,62.05692,0,0,0,66.46314,0A117.58416,117.58416,0,1,0,477.5756,229.43Zm-359.954,159.17249a76.10811,76.10811,0,1,1,76.10811-76.10811A76.19449,76.19449,0,0,1,117.62162,388.60246ZM256,340.17a27.67568,27.67568,0,1,1,27.67568-27.67568A27.67513,27.67513,0,0,1,256,340.17Zm138.37838,48.43241a76.10811,76.10811,0,1,1,76.10811-76.10811A76.1945,76.1945,0,0,1,394.37839,388.60246Z"/></svg>